<svg width="16" height="16" viewBox="0 0 16 16" fill="none" xmlns="http://www.w3.org/2000/svg">
<path d="M12.6667 7.99984V12.6665C12.6667 13.0201 12.5262 13.3593 12.2761 13.6093C12.0261 13.8594 11.687 13.9998 11.3333 13.9998H4.66667C4.31304 13.9998 3.97391 13.8594 3.72386 13.6093C3.47381 13.3593 3.33333 13.0201 3.33333 12.6665V7.99984M5 5.33314C4.55797 5.33314 4.13405 5.15754 3.82149 4.84498C3.50893 4.53242 3.33333 4.1085 3.33333 3.66647C3.33333 3.22444 3.50893 2.80052 3.82149 2.48796C4.13405 2.1754 4.55797 1.9998 5 1.9998C5.64312 1.9886 6.27335 2.30064 6.80849 2.89524C7.34363 3.48984 7.75885 4.33944 8 5.33317C8.24115 4.33944 8.65637 3.48984 9.19151 2.89524C9.72665 2.30064 10.3569 1.9886 11 1.9998C11.442 1.9998 11.866 2.1754 12.1785 2.48796C12.4911 2.80052 12.6667 3.22444 12.6667 3.66647C12.6667 4.1085 12.4911 4.53242 12.1785 4.84498C11.866 5.15754 11.442 5.33314 11 5.33314M2.66667 5.33317H13.3333C13.7015 5.33317 14 5.63165 14 5.99984V7.33317C14 7.70136 13.7015 7.99984 13.3333 7.99984H2.66667C2.29848 7.99984 2 7.70136 2 7.33317V5.99984C2 5.63165 2.29848 5.33317 2.66667 5.33317Z" stroke="#F5F5F5" stroke-linecap="round" stroke-linejoin="round"/>
<path d="M5.58539 11.9788C5.41016 11.9788 5.25393 11.9461 5.11671 11.8807C4.98032 11.8153 4.87204 11.7252 4.79186 11.6104C4.71168 11.4956 4.66993 11.364 4.66663 11.2156H5.18739C5.19317 11.3154 5.2345 11.3963 5.31138 11.4583C5.38825 11.5203 5.47959 11.5513 5.58539 11.5513C5.66971 11.5513 5.7441 11.5325 5.80858 11.4947C5.87388 11.4562 5.92472 11.403 5.96109 11.3351C5.99828 11.2663 6.01688 11.1875 6.01688 11.0987C6.01688 11.0082 5.99787 10.9286 5.95985 10.8598C5.92265 10.7911 5.87099 10.7374 5.80486 10.6989C5.73873 10.6603 5.6631 10.6406 5.57796 10.6398C5.50356 10.6398 5.43123 10.6553 5.36097 10.6863C5.29154 10.7173 5.2374 10.7597 5.19854 10.8133L4.72118 10.7265L4.84145 9.3687H6.39381V9.81377H5.2841L5.21838 10.4588H5.23326C5.2779 10.395 5.34527 10.3422 5.43537 10.3003C5.52547 10.2584 5.62631 10.2375 5.7379 10.2375C5.89082 10.2375 6.02721 10.2739 6.14707 10.3469C6.26693 10.4198 6.36157 10.5199 6.43101 10.6473C6.50044 10.7739 6.53475 10.9197 6.53392 11.0849C6.53475 11.2584 6.49507 11.4126 6.41489 11.5475C6.33554 11.6817 6.22436 11.7873 6.08136 11.8644C5.93918 11.9407 5.77386 11.9788 5.58539 11.9788Z" fill="#F5F5F5"/>
<path d="M7.90402 12.0002C7.69075 11.9993 7.50725 11.9461 7.3535 11.8405C7.20058 11.7349 7.08279 11.5819 7.00013 11.3816C6.91829 11.1813 6.87779 10.9403 6.87861 10.6587C6.87861 10.3779 6.91953 10.1386 7.00137 9.94076C7.08403 9.74295 7.20182 9.59249 7.35474 9.4894C7.50849 9.38546 7.69158 9.3335 7.90402 9.3335C8.11645 9.3335 8.29913 9.38546 8.45205 9.4894C8.6058 9.59333 8.72401 9.7442 8.80667 9.94201C8.88933 10.139 8.93024 10.3779 8.92942 10.6587C8.92942 10.9411 8.88809 11.1825 8.80543 11.3828C8.72359 11.5832 8.60621 11.7361 8.45329 11.8417C8.30037 11.9474 8.11728 12.0002 7.90402 12.0002ZM7.90402 11.5488C8.0495 11.5488 8.16563 11.4746 8.25243 11.3263C8.33922 11.1779 8.38221 10.9554 8.38138 10.6587C8.38138 10.4634 8.36154 10.3008 8.32186 10.1708C8.28301 10.0409 8.22763 9.94327 8.15572 9.87789C8.08463 9.81252 8.00073 9.77983 7.90402 9.77983C7.75936 9.77983 7.64364 9.85317 7.55684 9.99985C7.47005 10.1465 7.42624 10.3661 7.42541 10.6587C7.42541 10.8565 7.44484 11.0216 7.48369 11.154C7.52336 11.2856 7.57916 11.3845 7.65107 11.4507C7.72299 11.5161 7.8073 11.5488 7.90402 11.5488Z" fill="#F5F5F5"/>
<path d="M10.3079 12.0002C10.0946 11.9993 9.91111 11.9461 9.75736 11.8405C9.60444 11.7349 9.48665 11.5819 9.40399 11.3816C9.32216 11.1813 9.28165 10.9403 9.28248 10.6587C9.28248 10.3779 9.3234 10.1386 9.40523 9.94076C9.48789 9.74295 9.60568 9.59249 9.7586 9.4894C9.91235 9.38546 10.0954 9.3335 10.3079 9.3335C10.5203 9.3335 10.703 9.38546 10.8559 9.4894C11.0097 9.59333 11.1279 9.7442 11.2105 9.94201C11.2932 10.139 11.3341 10.3779 11.3333 10.6587C11.3333 10.9411 11.292 11.1825 11.2093 11.3828C11.1275 11.5832 11.0101 11.7361 10.8572 11.8417C10.7042 11.9474 10.5211 12.0002 10.3079 12.0002ZM10.3079 11.5488C10.4534 11.5488 10.5695 11.4746 10.6563 11.3263C10.7431 11.1779 10.7861 10.9554 10.7852 10.6587C10.7852 10.4634 10.7654 10.3008 10.7257 10.1708C10.6869 10.0409 10.6315 9.94327 10.5596 9.87789C10.4885 9.81252 10.4046 9.77983 10.3079 9.77983C10.1632 9.77983 10.0475 9.85317 9.96071 9.99985C9.87391 10.1465 9.8301 10.3661 9.82928 10.6587C9.82928 10.8565 9.8487 11.0216 9.88755 11.154C9.92723 11.2856 9.98302 11.3845 10.0549 11.4507C10.1269 11.5161 10.2112 11.5488 10.3079 11.5488Z" fill="#F5F5F5"/>
</svg>
