<svg width="49" height="48" viewBox="0 0 49 48" fill="none" xmlns="http://www.w3.org/2000/svg">
<path fill-rule="evenodd" clip-rule="evenodd" d="M6.12872 8.36141C17.2857 -4.62357 37.9728 -2.06041 45.7065 13.1074C40.2625 13.1094 31.7376 13.1057 27.1205 13.1074C23.7718 13.1085 21.6096 13.0324 19.2682 14.265C16.5155 15.714 14.4385 18.3999 13.7135 21.5547L6.12872 8.36141Z" fill="#EA4335"/>
<path fill-rule="evenodd" clip-rule="evenodd" d="M16.3492 23.9992C16.3492 28.4 19.9274 31.9803 24.3258 31.9803C28.724 31.9803 32.3023 28.4 32.3023 23.9992C32.3023 19.5985 28.724 16.0182 24.3258 16.0182C19.9274 16.0182 16.3492 19.5985 16.3492 23.9992Z" fill="#4285F4"/>
<path fill-rule="evenodd" clip-rule="evenodd" d="M27.4213 34.4463C22.9442 35.7769 17.7049 34.3013 14.835 29.3475C12.6443 25.5662 6.85628 15.4828 4.22545 10.8978C-4.98858 25.0201 2.95261 44.265 19.68 47.5498L27.4213 34.4463Z" fill="#34A853"/>
<path fill-rule="evenodd" clip-rule="evenodd" d="M31.735 16.0182C35.4639 19.4864 36.2763 25.1023 33.7505 29.4569C31.8474 32.7376 25.7737 42.9888 22.8301 47.9527C40.0645 49.0152 52.6282 32.124 46.9533 16.0182H31.735Z" fill="#FBBC05"/>
</svg>
