<svg width="30" height="30" viewBox="0 0 30 30" fill="none" xmlns="http://www.w3.org/2000/svg">
<g filter="url(#filter0_ddi_3578_79892)">
<rect x="3" y="1" width="24" height="24" rx="6" fill="#1D1D1D"/>
<path d="M24.1365 19.4775H18.4089V18.6621L18.5437 18.6602C19.2671 18.6479 19.697 18.572 19.8396 18.5283C19.9791 18.4796 20.0563 18.4216 20.0955 18.3662C20.1178 18.3287 20.1451 18.2468 20.1677 18.1016C20.1898 17.9598 20.2064 17.7729 20.2156 17.5391V17.5381C20.2216 17.4124 20.2332 16.5446 20.2517 14.9277V10.6631C20.2517 9.82932 20.2428 9.01366 20.2244 8.2168L20.2058 7.8291C20.1979 7.71564 20.1876 7.61779 20.1765 7.53516C20.1654 7.45243 20.1534 7.38724 20.1404 7.33887C20.127 7.28925 20.1157 7.26663 20.1111 7.25977L20.1052 7.25195C20.0593 7.1773 19.9777 7.11361 19.8396 7.07129L19.8328 7.06934C19.7751 7.04881 19.6433 7.02676 19.4197 7.00977C19.2013 6.99317 18.9096 6.98171 18.5437 6.97559L18.4089 6.97363V6.11328H24.1365V6.97363L24.0027 6.97559C23.6366 6.98171 23.3438 6.99317 23.1238 7.00977C22.8986 7.02676 22.7633 7.04916 22.7019 7.07031L22.699 7.07129C22.565 7.11394 22.4892 7.1683 22.45 7.22363L22.4138 7.31543C22.4014 7.35896 22.3891 7.41615 22.3777 7.48926C22.3557 7.63098 22.34 7.81795 22.3308 8.05176V8.05371C22.3248 8.1747 22.3122 9.04222 22.2937 10.6641V14.9277C22.2937 15.7617 22.3026 16.5744 22.321 17.3652L22.3396 17.7539C22.3472 17.8679 22.3565 17.9671 22.3669 18.0508C22.3774 18.1344 22.3889 18.2007 22.4011 18.251C22.4129 18.2995 22.4243 18.3248 22.4304 18.3359C22.4843 18.4152 22.5694 18.4811 22.699 18.5283C22.7629 18.5475 22.8994 18.5677 23.1228 18.583C23.3433 18.5981 23.6364 18.6091 24.0027 18.6152L24.1365 18.6172V19.4775Z" fill="white" stroke="white" stroke-width="0.272725"/>
<path d="M12.4843 6.11328C12.7488 6.11328 12.9684 6.19507 13.1122 6.38086L13.162 6.44727C13.2736 6.61171 13.354 6.84382 13.4111 7.12988C13.4864 7.49188 13.7477 8.6774 14.1953 10.6875C14.6426 12.6905 15.0112 14.2015 15.3007 15.2207C15.5913 16.2437 15.8184 16.9337 15.9824 17.2988C16.1412 17.6526 16.3286 17.8533 16.4892 18.0244C16.5366 18.0749 16.6422 18.1557 16.7773 18.2451C16.9091 18.3323 17.0586 18.4207 17.1855 18.4863C17.2592 18.5245 17.4005 18.5735 17.5605 18.6123C17.7203 18.6511 17.8821 18.676 17.996 18.6729L18.1367 18.6689V19.4775H17.9999C17.6924 19.4775 17.3579 19.4752 17.0566 19.4736C16.7552 19.4721 16.4875 19.4707 16.3124 19.4707H15.5097C15.2139 19.4707 14.9527 19.3839 14.7333 19.207C14.516 19.0317 14.3475 18.7749 14.2226 18.4482C13.9799 17.8132 13.5564 16.1249 12.9531 13.3994L11.7939 8.36914C11.6728 7.85275 11.5284 7.52544 11.374 7.35938C11.2313 7.20602 10.9772 7.1123 10.5751 7.1123C10.5063 7.11231 10.4058 7.11402 10.2773 7.11523C10.1491 7.11645 9.99431 7.11719 9.8183 7.11719H9.68158V6.50391L9.789 6.48047C11.025 6.20623 12.1412 6.1133 12.4843 6.11328Z" fill="white" stroke="white" stroke-width="0.272725"/>
<path d="M11.1235 10.5596C10.4036 12.23 9.31761 14.6376 8.73383 15.9414C8.34204 16.8164 8.45068 16.563 8.24457 16.9814C8.17179 17.1292 7.98651 17.3883 7.79242 17.6377C7.60015 17.8847 7.41209 18.1068 7.34418 18.1777C7.30307 18.2207 7.21008 18.2908 7.08929 18.3691C6.97152 18.4455 6.83726 18.5226 6.72406 18.5801C6.66172 18.6117 6.53867 18.6507 6.39496 18.6807C6.25261 18.7103 6.10639 18.7284 6.00336 18.7256L5.86371 18.7217V19.4766H7.81976C8.34301 19.4765 8.95301 19.1786 9.19086 18.5684C9.40485 18.0193 10.8756 14.0785 11.5844 11.8398L11.5942 11.8076L11.5893 11.7754L11.3832 10.5898L11.3051 10.1387L11.1235 10.5596Z" fill="white" stroke="white" stroke-width="0.272725"/>
</g>
<defs>
<filter id="filter0_ddi_3578_79892" x="0.75" y="0.25" width="28.5" height="29.25" filterUnits="userSpaceOnUse" color-interpolation-filters="sRGB">
<feFlood flood-opacity="0" result="BackgroundImageFix"/>
<feColorMatrix in="SourceAlpha" type="matrix" values="0 0 0 0 0 0 0 0 0 0 0 0 0 0 0 0 0 0 127 0" result="hardAlpha"/>
<feMorphology radius="0.75" operator="dilate" in="SourceAlpha" result="effect1_dropShadow_3578_79892"/>
<feOffset/>
<feComposite in2="hardAlpha" operator="out"/>
<feColorMatrix type="matrix" values="0 0 0 0 0.831373 0 0 0 0 0.831373 0 0 0 0 0.831373 0 0 0 0.25 0"/>
<feBlend mode="normal" in2="BackgroundImageFix" result="effect1_dropShadow_3578_79892"/>
<feColorMatrix in="SourceAlpha" type="matrix" values="0 0 0 0 0 0 0 0 0 0 0 0 0 0 0 0 0 0 127 0" result="hardAlpha"/>
<feMorphology radius="0.75" operator="erode" in="SourceAlpha" result="effect2_dropShadow_3578_79892"/>
<feOffset dy="2.25"/>
<feGaussianBlur stdDeviation="1.5"/>
<feComposite in2="hardAlpha" operator="out"/>
<feColorMatrix type="matrix" values="0 0 0 0 0 0 0 0 0 0 0 0 0 0 0 0 0 0 0.25 0"/>
<feBlend mode="normal" in2="effect1_dropShadow_3578_79892" result="effect2_dropShadow_3578_79892"/>
<feBlend mode="normal" in="SourceGraphic" in2="effect2_dropShadow_3578_79892" result="shape"/>
<feColorMatrix in="SourceAlpha" type="matrix" values="0 0 0 0 0 0 0 0 0 0 0 0 0 0 0 0 0 0 127 0" result="hardAlpha"/>
<feOffset dy="0.75"/>
<feGaussianBlur stdDeviation="1.5"/>
<feComposite in2="hardAlpha" operator="arithmetic" k2="-1" k3="1"/>
<feColorMatrix type="matrix" values="0 0 0 0 1 0 0 0 0 1 0 0 0 0 1 0 0 0 0.33 0"/>
<feBlend mode="normal" in2="shape" result="effect3_innerShadow_3578_79892"/>
</filter>
</defs>
</svg>
