<svg width="38" height="39" viewBox="0 0 38 39" fill="none" xmlns="http://www.w3.org/2000/svg">
<g filter="url(#filter0_ddi_3582_82715)">
<rect x="3" y="1" width="32" height="32" rx="8" fill="#1D1D1D"/>
<path d="M17.0229 8.55373C17.2431 8.84968 17.4278 9.39533 17.5769 10.1907L18.994 17.8761C19.7327 22.0471 20.2476 24.6089 20.5389 25.5615C20.8301 26.5141 21.3024 26.9904 21.9559 26.9904H22.9368C23.3658 26.9904 24.2492 27 25 27V26.1875C24.6782 26.1986 24.142 26.0186 23.9275 25.8798C23.6057 25.6716 23.1767 25.3245 23.0318 25.1315C22.8329 24.8664 22.5878 24.5396 22.3819 23.9662C22.1759 23.3928 21.8953 22.3246 21.5402 20.7616C21.185 19.1986 20.734 16.8865 20.1871 13.8253C19.6401 10.7548 19.3205 8.94216 19.2282 8.38726C19.15 7.89709 19.0399 7.54565 18.8979 7.33294C18.7629 7.11098 18.5498 7 18.2586 7C17.8537 7 16.5016 7.13882 15 7.55529V8.11721C15.429 8.11721 15.755 8.10981 15.9255 8.10981C16.4369 8.10981 16.8027 8.25778 17.0229 8.55373Z" fill="white"/>
<path d="M24.0229 8.55373C24.2431 8.84968 24.4278 9.39533 24.5769 10.1907L25.994 17.8761C26.7327 22.0471 27.2476 24.6089 27.5389 25.5615C27.8301 26.5141 28.3024 26.9904 28.9559 26.9904H29.9368C30.3658 26.9904 31.2492 27 32 27V26.1875C31.6782 26.1986 31.142 26.0186 30.9275 25.8798C30.6057 25.6716 30.1767 25.3245 30.0318 25.1315C29.8329 24.8664 29.5878 24.5396 29.3819 23.9662C29.1759 23.3928 28.8953 22.3246 28.5402 20.7616C28.185 19.1986 27.734 16.8865 27.1871 13.8253C26.6401 10.7548 26.3205 8.94216 26.2282 8.38726C26.15 7.89709 26.0399 7.54565 25.8979 7.33294C25.7629 7.11098 25.5498 7 25.2586 7C24.8537 7 23.5016 7.13882 22 7.55529V8.11721C22.429 8.11721 22.755 8.10981 22.9255 8.10981C23.4369 8.10981 23.8027 8.25778 24.0229 8.55373Z" fill="white"/>
<path d="M10.0229 8.55373C10.2431 8.84968 10.4278 9.39533 10.5769 10.1907L11.994 17.8761C12.7327 22.0471 13.2476 24.6089 13.5389 25.5615C13.8301 26.5141 14.3024 26.9904 14.9559 26.9904H15.9368C16.3658 26.9904 17.2492 27 18 27V26.1875C17.6782 26.1986 17.142 26.0186 16.9275 25.8798C16.6057 25.6716 16.1767 25.3245 16.0318 25.1315C15.8329 24.8664 15.5878 24.5396 15.3819 23.9662C15.1759 23.3928 14.8953 22.3246 14.5402 20.7616C14.185 19.1986 13.734 16.8865 13.1871 13.8253C12.6401 10.7548 12.3205 8.94216 12.2282 8.38726C12.15 7.89709 12.0399 7.54565 11.8979 7.33294C11.7629 7.11098 11.5498 7 11.2586 7C10.8537 7 9.50156 7.13882 8 7.55529V8.11721C8.42902 8.11721 8.75504 8.10981 8.92551 8.10981C9.43692 8.10981 9.80273 8.25778 10.0229 8.55373Z" fill="white"/>
</g>
<defs>
<filter id="filter0_ddi_3582_82715" x="0" y="0" width="38" height="39" filterUnits="userSpaceOnUse" color-interpolation-filters="sRGB">
<feFlood flood-opacity="0" result="BackgroundImageFix"/>
<feColorMatrix in="SourceAlpha" type="matrix" values="0 0 0 0 0 0 0 0 0 0 0 0 0 0 0 0 0 0 127 0" result="hardAlpha"/>
<feMorphology radius="1" operator="dilate" in="SourceAlpha" result="effect1_dropShadow_3582_82715"/>
<feOffset/>
<feComposite in2="hardAlpha" operator="out"/>
<feColorMatrix type="matrix" values="0 0 0 0 0.831373 0 0 0 0 0.831373 0 0 0 0 0.831373 0 0 0 0.25 0"/>
<feBlend mode="normal" in2="BackgroundImageFix" result="effect1_dropShadow_3582_82715"/>
<feColorMatrix in="SourceAlpha" type="matrix" values="0 0 0 0 0 0 0 0 0 0 0 0 0 0 0 0 0 0 127 0" result="hardAlpha"/>
<feMorphology radius="1" operator="erode" in="SourceAlpha" result="effect2_dropShadow_3582_82715"/>
<feOffset dy="3"/>
<feGaussianBlur stdDeviation="2"/>
<feComposite in2="hardAlpha" operator="out"/>
<feColorMatrix type="matrix" values="0 0 0 0 0 0 0 0 0 0 0 0 0 0 0 0 0 0 0.25 0"/>
<feBlend mode="normal" in2="effect1_dropShadow_3582_82715" result="effect2_dropShadow_3582_82715"/>
<feBlend mode="normal" in="SourceGraphic" in2="effect2_dropShadow_3582_82715" result="shape"/>
<feColorMatrix in="SourceAlpha" type="matrix" values="0 0 0 0 0 0 0 0 0 0 0 0 0 0 0 0 0 0 127 0" result="hardAlpha"/>
<feOffset dy="1"/>
<feGaussianBlur stdDeviation="2"/>
<feComposite in2="hardAlpha" operator="arithmetic" k2="-1" k3="1"/>
<feColorMatrix type="matrix" values="0 0 0 0 1 0 0 0 0 1 0 0 0 0 1 0 0 0 0.33 0"/>
<feBlend mode="normal" in2="shape" result="effect3_innerShadow_3582_82715"/>
</filter>
</defs>
</svg>
