<svg width="25" height="24" viewBox="0 0 25 24" fill="none" xmlns="http://www.w3.org/2000/svg">
<path d="M15.5001 22V18C15.6392 16.7473 15.28 15.4901 14.5001 14.5C17.5001 14.5 20.5001 12.5 20.5001 9C20.5801 7.75 20.2301 6.52 19.5001 5.5C19.7801 4.35 19.7801 3.15 19.5001 2C19.5001 2 18.5001 2 16.5001 3.5C13.8601 3 11.1401 3 8.5001 3.5C6.5001 2 5.5001 2 5.5001 2C5.2001 3.15 5.2001 4.35 5.5001 5.5C4.77197 6.51588 4.41857 7.75279 4.5001 9C4.5001 12.5 7.5001 14.5 10.5001 14.5C10.1101 14.99 9.8201 15.55 9.6501 16.15C9.4801 16.75 9.4301 17.38 9.5001 18M9.5001 18V22M9.5001 18C4.9901 20 4.50006 16 2.50006 16" stroke="white" stroke-width="2" stroke-linecap="round" stroke-linejoin="round"/>
</svg>
