<svg width="49" height="48" viewBox="0 0 49 48" fill="none" xmlns="http://www.w3.org/2000/svg">
<path d="M45.3355 24.4663C45.3355 22.7397 45.1925 21.4797 44.8831 20.173H24.764V27.9663H36.5735C36.3355 29.9031 35.0497 32.8197 32.1925 34.7796L32.1524 35.0406L38.5138 39.87L38.9545 39.913C43.0021 36.2497 45.3355 30.8596 45.3355 24.4663Z" fill="#4285F4"/>
<path d="M24.7628 44.9997C30.5485 44.9997 35.4054 43.1329 38.9532 39.9129L32.1912 34.7794C30.3818 36.0162 27.9531 36.8794 24.7628 36.8794C19.0963 36.8794 14.2867 33.2161 12.5723 28.1529L12.321 28.1737L5.70647 33.1905L5.61996 33.4261C9.14373 40.2861 16.3819 44.9997 24.7628 44.9997Z" fill="#34A853"/>
<path d="M12.5728 28.1535C12.1204 26.8469 11.8586 25.4468 11.8586 24.0002C11.8586 22.5534 12.1204 21.1535 12.549 19.8468L12.537 19.5684L5.83958 14.4712L5.62046 14.5733C4.16815 17.4201 3.33481 20.6168 3.33481 24.0002C3.33481 27.3834 4.16815 30.5801 5.62046 33.4268L12.5728 28.1535Z" fill="#FBBC05"/>
<path d="M24.7629 11.12C28.7867 11.12 31.5009 12.8233 33.0486 14.2467L39.0962 8.46C35.382 5.07668 30.5486 3 24.7629 3C16.3818 3 9.14375 7.7133 5.61996 14.5732L12.5485 19.8467C14.2868 14.7833 19.0962 11.12 24.7629 11.12Z" fill="#EB4335"/>
</svg>
